<svg width="100" height="100" viewBox="0 0 100 100" fill="none" xmlns="http://www.w3.org/2000/svg">
  <!-- Background circle -->
  <circle cx="50" cy="50" r="48" fill="#f2efff"/>
  
  <!-- Gradient definitions -->
  <defs>
    <linearGradient id="brainGradient" x1="0%" y1="0%" x2="100%" y2="100%">
      <stop offset="0%" stop-color="#7c3aed" />
      <stop offset="100%" stop-color="#6978e1" />
    </linearGradient>
    <linearGradient id="brainLightGradient" x1="0%" y1="0%" x2="100%" y2="100%">
      <stop offset="0%" stop-color="#a78bfa" />
      <stop offset="100%" stop-color="#7c3aed" />
    </linearGradient>
  </defs>
  
  <!-- Main brain shape - left hemisphere -->
  <path
    d="M 30 35 Q 20 35, 20 45 Q 20 55, 25 60 Q 20 65, 25 75 Q 30 80, 40 78 Q 45 85, 50 85"
    stroke="url(#brainGradient)"
    stroke-width="4"
    fill="none"
    stroke-linecap="round"
  />
  
  <!-- Main brain shape - right hemisphere -->
  <path
    d="M 70 35 Q 80 35, 80 45 Q 80 55, 75 60 Q 80 65, 75 75 Q 70 80, 60 78 Q 55 85, 50 85"
    stroke="url(#brainGradient)"
    stroke-width="4"
    fill="none"
    stroke-linecap="round"
  />
  
  <!-- Top of brain -->
  <path
    d="M 30 35 Q 35 25, 45 22 Q 50 20, 55 22 Q 65 25, 70 35"
    stroke="url(#brainGradient)"
    stroke-width="4"
    fill="none"
    stroke-linecap="round"
  />
  
  <!-- Brain folds - left side -->
  <path
    d="M 28 45 Q 32 45, 35 48"
    stroke="url(#brainLightGradient)"
    stroke-width="2.5"
    fill="none"
    stroke-linecap="round"
  />
  <path
    d="M 30 55 Q 35 55, 38 58"
    stroke="url(#brainLightGradient)"
    stroke-width="2.5"
    fill="none"
    stroke-linecap="round"
  />
  <path
    d="M 32 65 Q 37 65, 40 68"
    stroke="url(#brainLightGradient)"
    stroke-width="2.5"
    fill="none"
    stroke-linecap="round"
  />
  
  <!-- Brain folds - right side -->
  <path
    d="M 72 45 Q 68 45, 65 48"
    stroke="url(#brainLightGradient)"
    stroke-width="2.5"
    fill="none"
    stroke-linecap="round"
  />
  <path
    d="M 70 55 Q 65 55, 62 58"
    stroke="url(#brainLightGradient)"
    stroke-width="2.5"
    fill="none"
    stroke-linecap="round"
  />
  <path
    d="M 68 65 Q 63 65, 60 68"
    stroke="url(#brainLightGradient)"
    stroke-width="2.5"
    fill="none"
    stroke-linecap="round"
  />
  
  <!-- Cute eyes -->
  <circle cx="38" cy="50" r="3" fill="#7c3aed" />
  <circle cx="62" cy="50" r="3" fill="#7c3aed" />
  
  <!-- Eye sparkles -->
  <circle cx="39.5" cy="48.5" r="1" fill="#f2efff" />
  <circle cx="63.5" cy="48.5" r="1" fill="#f2efff" />
  
  <!-- Cute smile -->
  <path
    d="M 42 62 Q 50 67, 58 62"
    stroke="#7c3aed"
    stroke-width="2.5"
    fill="none"
    stroke-linecap="round"
  />
</svg>
